<?xml version="1.0" encoding="UTF-8"?>
<svg width="173px" height="115px" viewBox="0 0 173 115" version="1.1" xmlns="http://www.w3.org/2000/svg" xmlns:xlink="http://www.w3.org/1999/xlink">
    <!-- Generator: Sketch 52.6 (67491) - http://www.bohemiancoding.com/sketch -->
    <title>Kyber_Swap</title>
    <desc>Created with Sketch.</desc>
    <defs>
        <linearGradient x1="-38.5754198%" y1="0%" x2="82.8448475%" y2="261.255612%" id="linearGradient-1">
            <stop stop-color="#FFB046" offset="0%"></stop>
            <stop stop-color="#F52880" offset="100%"></stop>
        </linearGradient>
    </defs>
    <g id="Kyber_Swap" stroke="none" stroke-width="1" fill="none" fill-rule="evenodd">
        <g id="kyber-logo-copy" transform="translate(19.000000, 13.000000)" fill="url(#linearGradient-1)" fill-rule="nonzero">
            <path d="M26.449359,44.5 L59.2576923,63.4826577 C60.4102564,64.1441441 61.8410256,63.3022523 61.8410256,61.9792793 L61.8410256,27.0006757 C61.8410256,25.6576577 60.4102564,24.8358108 59.2576923,25.4972973 L26.449359,44.5 Z" id="Shape"></path>
            <path d="M57.3698718,17.338964 L35.550641,0.541216216 C34.5371795,-0.240540541 33.0865385,0.320720721 32.8282051,1.56351351 L24.8596154,38.9475225 L57.1711538,20.2254505 C58.2442308,19.6040541 58.3435897,18.1006757 57.3698718,17.338964" id="Shape"></path>
            <path d="M35.550641,88.4587838 L57.3897436,71.661036 C58.3634615,70.8993243 58.2641026,69.3959459 57.2108974,68.7745495 L24.8794872,50.0524775 L32.8480769,87.4364865 C33.0865385,88.6792793 34.5570513,89.2204955 35.550641,88.4587838" id="Shape"></path>
            <path d="M18.0435897,44.5 L26.6282051,4.20945946 C26.9660256,2.6259009 25.1775641,1.48333333 23.9057692,2.46554054 L1.9275641,19.3835586 C0.794871795,20.2454955 0.139102564,21.6085586 0.139102564,23.0317568 L0.139102564,65.9481982 C0.139102564,67.3713964 0.794871795,68.7344595 1.9275641,69.5963964 L23.9057692,86.5144144 C25.1775641,87.4966216 26.9660256,86.3540541 26.6282051,84.7704955 L18.0435897,44.5 Z" id="Shape"></path>
        </g>
        <path d="M97.776,43.576 L105.096,52 L101.952,52 L94.608,43.576 L101.256,36.16 L104.376,36.16 L97.776,43.576 Z M94.536,52 L91.992,52 L91.992,36.16 L94.536,36.16 L94.536,52 Z M111.148,53.344 C110.651998,54.4800057 110.056003,55.3039974 109.36,55.816 C108.663997,56.3280026 107.812005,56.584 106.804,56.584 C106.483998,56.584 106.156002,56.5640002 105.82,56.524 C105.483998,56.4839998 105.164002,56.4240004 104.86,56.344 L104.86,54.208 C105.148001,54.2400002 105.403999,54.2639999 105.628,54.28 C105.852001,54.2960001 106.067999,54.304 106.276,54.304 C106.820003,54.304 107.303998,54.1920011 107.728,53.968 C108.152002,53.7439989 108.523998,53.2800035 108.844,52.576 L109.324,51.472 L104.62,40.216 L107.332,40.216 L110.692,48.808 L114.196,40.216 L116.884,40.216 L111.148,53.344 Z M121.184,41.656 C121.632002,41.1279974 122.195997,40.7120015 122.876,40.408 C123.556003,40.1039985 124.303996,39.952 125.12,39.952 C125.952004,39.952 126.719996,40.1079984 127.424,40.42 C128.128004,40.7320016 128.739997,41.1639972 129.26,41.716 C129.780003,42.2680028 130.183999,42.9199962 130.472,43.672 C130.760001,44.4240038 130.904,45.2399956 130.904,46.12 C130.904,47.0000044 130.760001,47.8119963 130.472,48.556 C130.183999,49.3000037 129.784003,49.9479972 129.272,50.5 C128.759997,51.0520028 128.152004,51.4839984 127.448,51.796 C126.743996,52.1080016 125.976004,52.264 125.144,52.264 C124.263996,52.264 123.460004,52.0960017 122.732,51.76 C122.003996,51.4239983 121.424002,50.9440031 120.992,50.32 L120.992,52 L118.664,52 L118.664,34 L121.184,34 L121.184,41.656 Z M124.712,42.256 C124.263998,42.256 123.828002,42.3319992 123.404,42.484 C122.979998,42.6360008 122.600002,42.8719984 122.264,43.192 C121.927998,43.5120016 121.660001,43.9119976 121.46,44.392 C121.259999,44.8720024 121.16,45.4479966 121.16,46.12 C121.16,46.7920034 121.263999,47.3719976 121.472,47.86 C121.680001,48.3480024 121.951998,48.7479984 122.288,49.06 C122.624002,49.3720016 123.003998,49.5999993 123.428,49.744 C123.852002,49.8880007 124.279998,49.96 124.712,49.96 C125.224003,49.96 125.699998,49.864001 126.14,49.672 C126.580002,49.479999 126.959998,49.2160017 127.28,48.88 C127.600002,48.5439983 127.851999,48.1400024 128.036,47.668 C128.220001,47.1959976 128.312,46.6720029 128.312,46.096 C128.312,45.5199971 128.220001,44.9960024 128.036,44.524 C127.851999,44.0519976 127.596002,43.6480017 127.268,43.312 C126.939998,42.9759983 126.556002,42.7160009 126.116,42.532 C125.675998,42.3479991 125.208002,42.256 124.712,42.256 Z M138.66,39.952 C139.444004,39.952 140.171997,40.0879986 140.844,40.36 C141.516003,40.6320014 142.091998,41.0079976 142.572,41.488 C143.052002,41.9680024 143.427999,42.5399967 143.7,43.204 C143.972001,43.8680033 144.108,44.5839962 144.108,45.352 C144.108,45.6720016 144.088,45.9759986 144.048,46.264 C144.008,46.5520014 143.964,46.7759992 143.916,46.936 L135.132,46.936 C135.308001,47.9120049 135.739997,48.6719973 136.428,49.216 C137.116003,49.7600027 137.963995,50.032 138.972,50.032 C139.660003,50.032 140.283997,49.9080012 140.844,49.66 C141.404003,49.4119988 141.923998,49.0720022 142.404,48.64 L143.628,50.368 C143.003997,50.960003 142.300004,51.4239983 141.516,51.76 C140.731996,52.0960017 139.868005,52.264 138.924,52.264 C138.011995,52.264 137.164004,52.1080016 136.38,51.796 C135.595996,51.4839984 134.924003,51.0520028 134.364,50.5 C133.803997,49.9479972 133.364002,49.2960038 133.044,48.544 C132.723998,47.7919962 132.564,46.9840043 132.564,46.12 C132.564,45.2559957 132.719998,44.4480038 133.032,43.696 C133.344002,42.9439962 133.775997,42.2920028 134.328,41.74 C134.880003,41.1879972 135.523996,40.7520016 136.26,40.432 C136.996004,40.1119984 137.795996,39.952 138.66,39.952 Z M138.588,42.088 C137.723996,42.088 136.988003,42.3479974 136.38,42.868 C135.771997,43.3880026 135.372001,44.0879956 135.18,44.968 L141.588,44.968 C141.556,44.0399954 141.248003,43.3280025 140.664,42.832 C140.079997,42.3359975 139.388004,42.088 138.588,42.088 Z M152.272,40.096 C152.480001,40.096 152.659999,40.1079999 152.812,40.132 C152.964001,40.1560001 153.103999,40.1839998 153.232,40.216 L153.232,42.448 L152.464,42.448 C151.999998,42.448 151.556002,42.5159993 151.132,42.652 C150.707998,42.7880007 150.340002,42.9919986 150.028,43.264 C149.715998,43.5360014 149.468001,43.875998 149.284,44.284 C149.099999,44.692002 149.008,45.1679973 149.008,45.712 L149.008,52 L146.488,52 L146.488,40.216 L148.816,40.216 L148.816,41.8 C149.232002,41.2399972 149.739997,40.8160014 150.34,40.528 C150.940003,40.2399986 151.583997,40.096 152.272,40.096 Z" id="Kyber" fill="#000000"></path>
        <path d="M96.768,61.896 C97.9360058,61.896 98.9599956,62.1639973 99.84,62.7 C100.720004,63.2360027 101.399998,63.9119959 101.88,64.728 L100.104,66.096 C99.6879979,65.487997 99.2000028,65.0160017 98.64,64.68 C98.0799972,64.3439983 97.4560034,64.176 96.768,64.176 C96.1279968,64.176 95.5680024,64.3319984 95.088,64.644 C94.6079976,64.9560016 94.368,65.4399967 94.368,66.096 C94.368,66.4000015 94.4239994,66.6599989 94.536,66.876 C94.6480006,67.0920011 94.799999,67.2839992 94.992,67.452 C95.184001,67.6200008 95.4159986,67.7719993 95.688,67.908 L96.576,68.352 L98.352,69.168 C98.944003,69.4400014 99.4799976,69.7279985 99.96,70.032 C100.440002,70.3360015 100.839998,70.6679982 101.16,71.028 C101.480002,71.3880018 101.727999,71.7839978 101.904,72.216 C102.080001,72.6480022 102.168,73.1359973 102.168,73.68 C102.168,74.3840035 102.032001,75.0199972 101.76,75.588 C101.487999,76.1560028 101.112002,76.635998 100.632,77.028 C100.151998,77.420002 99.5880032,77.7239989 98.94,77.94 C98.2919968,78.1560011 97.5920038,78.264 96.84,78.264 C95.5119934,78.264 94.3360051,77.9560031 93.312,77.34 C92.2879949,76.7239969 91.472003,75.8880053 90.864,74.832 L92.664,73.464 C92.8880011,73.8000017 93.1399986,74.1199985 93.42,74.424 C93.7000014,74.7280015 94.0079983,74.9959988 94.344,75.228 C94.6800017,75.4600012 95.051998,75.6439993 95.46,75.78 C95.868002,75.9160007 96.3199975,75.984 96.816,75.984 C97.6320041,75.984 98.2919975,75.788002 98.796,75.396 C99.3000025,75.003998 99.552,74.4640034 99.552,73.776 C99.552,73.4719985 99.4960006,73.2040012 99.384,72.972 C99.2719994,72.7399988 99.112001,72.5360009 98.904,72.36 C98.695999,72.1839991 98.4520014,72.0200008 98.172,71.868 C97.8919986,71.7159992 97.5760018,71.5600008 97.224,71.4 L95.472,70.584 C94.9599974,70.3439988 94.4800022,70.0880014 94.032,69.816 C93.5839978,69.5439986 93.1920017,69.2320018 92.856,68.88 C92.5199983,68.5279982 92.256001,68.1320022 92.064,67.692 C91.871999,67.2519978 91.776,66.7520028 91.776,66.192 C91.776,65.5359967 91.9079987,64.9440026 92.172,64.416 C92.4360013,63.8879974 92.7959977,63.4360019 93.252,63.06 C93.7080023,62.6839981 94.235997,62.396001 94.836,62.196 C95.436003,61.995999 96.0799966,61.896 96.768,61.896 Z M116.74,73.848 L119.788,66.216 L122.452,66.216 L117.244,78.264 L116.38,78.264 L112.66,70.392 L108.988,78.264 L108.124,78.264 L102.892,66.216 L105.58,66.216 L108.676,73.92 L112.252,65.952 L113.116,65.952 L116.74,73.848 Z M128.288,65.952 C129.008004,65.952 129.663997,66.055999 130.256,66.264 C130.848003,66.472001 131.355998,66.779998 131.78,67.188 C132.204002,67.596002 132.535999,68.1079969 132.776,68.724 C133.016001,69.3400031 133.136,70.0559959 133.136,70.872 L133.136,78 L130.784,78 L130.784,76.68 C130.367998,77.1760025 129.840003,77.5639986 129.2,77.844 C128.559997,78.1240014 127.832004,78.264 127.016,78.264 C126.391997,78.264 125.828003,78.1840008 125.324,78.024 C124.819997,77.8639992 124.388002,77.6320015 124.028,77.328 C123.667998,77.0239985 123.392001,76.6640021 123.2,76.248 C123.007999,75.8319979 122.912,75.3680026 122.912,74.856 C122.912,73.8159948 123.303996,72.996003 124.088,72.396 C124.872004,71.795997 125.927993,71.496 127.256,71.496 L130.592,71.496 L130.592,70.728 C130.592,69.9119959 130.376002,69.2880022 129.944,68.856 C129.511998,68.4239978 128.888004,68.208 128.072,68.208 C127.383997,68.208 126.784003,68.3599985 126.272,68.664 C125.759997,68.9680015 125.264002,69.3999972 124.784,69.96 L123.344,68.472 C123.952003,67.6079957 124.679996,66.972002 125.528,66.564 C126.376004,66.155998 127.295995,65.952 128.288,65.952 Z M127.544,76.32 C127.960002,76.32 128.351998,76.2520007 128.72,76.116 C129.088002,75.9799993 129.411999,75.7880012 129.692,75.54 C129.972001,75.2919988 130.191999,74.9960017 130.352,74.652 C130.512001,74.3079983 130.592,73.936002 130.592,73.536 L130.592,73.32 L127.568,73.32 C126.895997,73.32 126.380002,73.4399988 126.02,73.68 C125.659998,73.9200012 125.48,74.2799976 125.48,74.76 C125.48,75.2720026 125.679998,75.6599987 126.08,75.924 C126.480002,76.1880013 126.967997,76.32 127.544,76.32 Z M142.596,65.952 C143.428004,65.952 144.199996,66.1079984 144.912,66.42 C145.624004,66.7320016 146.235997,67.1639972 146.748,67.716 C147.260003,68.2680028 147.659999,68.9159963 147.948,69.66 C148.236001,70.4040037 148.38,71.2159956 148.38,72.096 C148.38,72.9760044 148.236001,73.7919962 147.948,74.544 C147.659999,75.2960038 147.256003,75.9479972 146.736,76.5 C146.215997,77.0520028 145.604004,77.4839984 144.9,77.796 C144.195996,78.1080016 143.428004,78.264 142.596,78.264 C141.779996,78.264 141.032003,78.1200014 140.352,77.832 C139.671997,77.5439986 139.108002,77.1280027 138.66,76.584 L138.66,82.32 L136.14,82.32 L136.14,66.216 L138.468,66.216 L138.468,67.92 C138.900002,67.2959969 139.475996,66.8120017 140.196,66.468 C140.916004,66.1239983 141.715996,65.952 142.596,65.952 Z M142.188,68.256 C141.755998,68.256 141.328002,68.3319992 140.904,68.484 C140.479998,68.6360008 140.100002,68.8679984 139.764,69.18 C139.427998,69.4920016 139.156001,69.8879976 138.948,70.368 C138.739999,70.8480024 138.636,71.4239966 138.636,72.096 C138.636,72.7680034 138.735999,73.3439976 138.936,73.824 C139.136001,74.3040024 139.403998,74.7039984 139.74,75.024 C140.076002,75.3440016 140.455998,75.5799992 140.88,75.732 C141.304002,75.8840008 141.739998,75.96 142.188,75.96 C142.684002,75.96 143.151998,75.8680009 143.592,75.684 C144.032002,75.4999991 144.415998,75.2400017 144.744,74.904 C145.072002,74.5679983 145.327999,74.1640024 145.512,73.692 C145.696001,73.2199976 145.788,72.6960029 145.788,72.12 C145.788,71.5439971 145.696001,71.0200024 145.512,70.548 C145.327999,70.0759976 145.076002,69.6720017 144.756,69.336 C144.435998,68.9999983 144.056002,68.736001 143.616,68.544 C143.175998,68.351999 142.700003,68.256 142.188,68.256 Z" id="Swap" fill="#000000"></path>
    </g>
</svg>